<svg width="1440" height="900" viewBox="0 0 1440 900" fill="none" xmlns="http://www.w3.org/2000/svg">
<g clip-path="url(#clip0_99_17794)">
<rect width="1440" height="900" fill="#1C1C1C"/>
<mask id="mask0_99_17794" style="mask-type:alpha" maskUnits="userSpaceOnUse" x="-17" y="-21" width="1440" height="1440">
<rect width="1440" height="1440" transform="translate(-17 -21)" fill="url(#paint0_radial_99_17794)"/>
</mask>
<g mask="url(#mask0_99_17794)">
<g clip-path="url(#clip1_99_17794)">
<g clip-path="url(#clip2_99_17794)">
<line x1="63.5" y1="-21" x2="63.5" y2="1419" stroke="#505050"/>
<line x1="143.5" y1="-21" x2="143.5" y2="1419" stroke="#505050"/>
<line x1="223.5" y1="-21" x2="223.5" y2="1419" stroke="#505050"/>
<line x1="303.5" y1="-21" x2="303.5" y2="1419" stroke="#505050"/>
<line x1="383.5" y1="-21" x2="383.5" y2="1419" stroke="#505050"/>
<line x1="463.5" y1="-21" x2="463.5" y2="1419" stroke="#505050"/>
<line x1="543.5" y1="-21" x2="543.5" y2="1419" stroke="#505050"/>
<line x1="623.5" y1="-21" x2="623.5" y2="1419" stroke="#505050"/>
<line x1="703.5" y1="-21" x2="703.5" y2="1419" stroke="#505050"/>
<line x1="783.5" y1="-21" x2="783.5" y2="1419" stroke="#505050"/>
<line x1="863.5" y1="-21" x2="863.5" y2="1419" stroke="#505050"/>
<line x1="943.5" y1="-21" x2="943.5" y2="1419" stroke="#505050"/>
<line x1="1023.5" y1="-21" x2="1023.5" y2="1419" stroke="#505050"/>
<line x1="1103.5" y1="-21" x2="1103.5" y2="1419" stroke="#505050"/>
<line x1="1183.5" y1="-21" x2="1183.5" y2="1419" stroke="#505050"/>
<line x1="1263.5" y1="-21" x2="1263.5" y2="1419" stroke="#505050"/>
<line x1="1343.5" y1="-21" x2="1343.5" y2="1419" stroke="#505050"/>
</g>
<g clip-path="url(#clip3_99_17794)">
<line x1="-257" y1="58.5" x2="1663" y2="58.5" stroke="#505050"/>
<line x1="-257" y1="138.5" x2="1663" y2="138.5" stroke="#505050"/>
<line x1="-257" y1="218.5" x2="1663" y2="218.5" stroke="#505050"/>
<line x1="-257" y1="298.5" x2="1663" y2="298.5" stroke="#505050"/>
<line x1="-257" y1="378.5" x2="1663" y2="378.5" stroke="#505050"/>
<line x1="-257" y1="458.5" x2="1663" y2="458.5" stroke="#505050"/>
<line x1="-257" y1="538.5" x2="1663" y2="538.5" stroke="#505050"/>
<line x1="-257" y1="618.5" x2="1663" y2="618.5" stroke="#505050"/>
<line x1="-257" y1="698.5" x2="1663" y2="698.5" stroke="#505050"/>
<line x1="-257" y1="778.5" x2="1663" y2="778.5" stroke="#505050"/>
<line x1="-257" y1="858.5" x2="1663" y2="858.5" stroke="#505050"/>
</g>
</g>
</g>
<g clip-path="url(#clip4_99_17794)">
<path d="M255.832 779.79L251.852 778.836L250.089 778.417C249.476 778.273 249.01 777.787 248.901 777.186L248.218 773.514L247.218 768.172C247.179 767.943 246.832 767.943 246.792 768.172L245.792 773.514L245.109 777.186C245 777.787 244.535 778.264 243.921 778.417L242.159 778.836L238.179 779.79C237.951 779.847 237.951 780.153 238.179 780.21L242.159 781.164L243.921 781.583C244.535 781.727 245 782.213 245.109 782.814L245.792 786.486L246.792 791.828C246.832 792.057 247.179 792.057 247.218 791.828L248.218 786.486L248.901 782.814C249.01 782.213 249.476 781.736 250.089 781.583L251.852 781.164L255.832 780.21C256.06 780.153 256.06 779.847 255.832 779.79Z" fill="white"/>
</g>
<g clip-path="url(#clip5_99_17794)">
<path d="M151.832 111.79L147.852 110.836L146.089 110.417C145.476 110.273 145.01 109.787 144.901 109.186L144.218 105.514L143.218 100.172C143.179 99.9428 142.832 99.9428 142.792 100.172L141.792 105.514L141.109 109.186C141 109.787 140.535 110.264 139.921 110.417L138.159 110.836L134.179 111.79C133.951 111.847 133.951 112.153 134.179 112.21L138.159 113.164L139.921 113.583C140.535 113.727 141 114.213 141.109 114.814L141.792 118.486L142.792 123.828C142.832 124.057 143.179 124.057 143.218 123.828L144.218 118.486L144.901 114.814C145.01 114.213 145.476 113.736 146.089 113.583L147.852 113.164L151.832 112.21C152.06 112.153 152.06 111.847 151.832 111.79Z" fill="white"/>
</g>
<g clip-path="url(#clip6_99_17794)">
<path d="M1329.83 123.79L1325.85 122.836L1324.09 122.417C1323.48 122.273 1323.01 121.787 1322.9 121.186L1322.22 117.514L1321.22 112.172C1321.18 111.943 1320.83 111.943 1320.79 112.172L1319.79 117.514L1319.11 121.186C1319 121.787 1318.54 122.264 1317.92 122.417L1316.16 122.836L1312.18 123.79C1311.95 123.847 1311.95 124.153 1312.18 124.21L1316.16 125.164L1317.92 125.583C1318.54 125.727 1319 126.213 1319.11 126.814L1319.79 130.486L1320.79 135.828C1320.83 136.057 1321.18 136.057 1321.22 135.828L1322.22 130.486L1322.9 126.814C1323.01 126.213 1323.48 125.736 1324.09 125.583L1325.85 125.164L1329.83 124.21C1330.06 124.153 1330.06 123.847 1329.83 123.79Z" fill="white"/>
</g>
<g clip-path="url(#clip7_99_17794)">
<path d="M1187.83 779.79L1183.85 778.836L1182.09 778.417C1181.48 778.273 1181.01 777.787 1180.9 777.186L1180.22 773.514L1179.22 768.172C1179.18 767.943 1178.83 767.943 1178.79 768.172L1177.79 773.514L1177.11 777.186C1177 777.787 1176.54 778.264 1175.92 778.417L1174.16 778.836L1170.18 779.79C1169.95 779.847 1169.95 780.153 1170.18 780.21L1174.16 781.164L1175.92 781.583C1176.54 781.727 1177 782.213 1177.11 782.814L1177.79 786.486L1178.79 791.828C1178.83 792.057 1179.18 792.057 1179.22 791.828L1180.22 786.486L1180.9 782.814C1181.01 782.213 1181.48 781.736 1182.09 781.583L1183.85 781.164L1187.83 780.21C1188.06 780.153 1188.06 779.847 1187.83 779.79Z" fill="white"/>
</g>
<g filter="url(#filter0_b_99_17794)">
<path d="M-104 418.854C-100.52 408.688 -93.6562 401.088 -86.0132 392.761C-52.737 356.507 -12.6565 325.049 32.4838 300.489C127.254 248.928 240.95 222.725 348.566 258.516C410.085 278.975 477.58 324.43 486.936 385.736C492.249 420.55 473.251 450.765 446.18 475.115C417.169 501.21 379.643 522.029 339.202 531.139C307.928 538.184 253.506 539.424 250.077 500.677C248.174 479.186 260.49 458.951 275.002 442.587C305.234 408.498 349.113 387.915 395.655 375.877C476.557 354.952 562.937 363.105 632.983 405.395C659.6 421.462 713.35 469.104 732 498.817" stroke="white" stroke-opacity="0.05" stroke-width="32" stroke-linecap="round"/>
</g>
<g clip-path="url(#clip8_99_17794)">
<path d="M1032.83 205.79L1028.85 204.836L1027.09 204.417C1026.48 204.273 1026.01 203.787 1025.9 203.186L1025.22 199.514L1024.22 194.172C1024.18 193.943 1023.83 193.943 1023.79 194.172L1022.79 199.514L1022.11 203.186C1022 203.787 1021.54 204.264 1020.92 204.417L1019.16 204.836L1015.18 205.79C1014.95 205.847 1014.95 206.153 1015.18 206.21L1019.16 207.164L1020.92 207.583C1021.54 207.727 1022 208.213 1022.11 208.814L1022.79 212.486L1023.79 217.828C1023.83 218.057 1024.18 218.057 1024.22 217.828L1025.22 212.486L1025.9 208.814C1026.01 208.213 1026.48 207.736 1027.09 207.583L1028.85 207.164L1032.83 206.21C1033.06 206.153 1033.06 205.847 1032.83 205.79Z" fill="white"/>
</g>
<g clip-path="url(#clip9_99_17794)">
<path d="M392.832 285.79L388.852 284.836L387.089 284.417C386.476 284.273 386.01 283.787 385.901 283.186L385.218 279.514L384.218 274.172C384.179 273.943 383.832 273.943 383.792 274.172L382.792 279.514L382.109 283.186C382 283.787 381.535 284.264 380.921 284.417L379.159 284.836L375.179 285.79C374.951 285.847 374.951 286.153 375.179 286.21L379.159 287.164L380.921 287.583C381.535 287.727 382 288.213 382.109 288.814L382.792 292.486L383.792 297.828C383.832 298.057 384.179 298.057 384.218 297.828L385.218 292.486L385.901 288.814C386.01 288.213 386.476 287.736 387.089 287.583L388.852 287.164L392.832 286.21C393.06 286.153 393.06 285.847 392.832 285.79Z" fill="white"/>
</g>
<g clip-path="url(#clip10_99_17794)">
<path d="M960.832 645.79L956.852 644.836L955.089 644.417C954.476 644.273 954.01 643.787 953.901 643.186L953.218 639.514L952.218 634.172C952.179 633.943 951.832 633.943 951.792 634.172L950.792 639.514L950.109 643.186C950 643.787 949.535 644.264 948.921 644.417L947.159 644.836L943.179 645.79C942.951 645.847 942.951 646.153 943.179 646.21L947.159 647.164L948.921 647.583C949.535 647.727 950 648.213 950.109 648.814L950.792 652.486L951.792 657.828C951.832 658.057 952.179 658.057 952.218 657.828L953.218 652.486L953.901 648.814C954.01 648.213 954.476 647.736 955.089 647.583L956.852 647.164L960.832 646.21C961.06 646.153 961.06 645.847 960.832 645.79Z" fill="white"/>
</g>
<g opacity="0.05" filter="url(#filter1_f_99_17794)">
<path d="M891 179C891 -22.5839 1054.42 -186 1256 -186V-186C1457.58 -186 1621 -22.5839 1621 179V179C1621 380.584 1457.58 544 1256 544V544C1054.42 544 891 380.584 891 179V179Z" fill="#2EFF8E"/>
</g>
<g opacity="0.05" filter="url(#filter2_f_99_17794)">
<rect x="-285" y="308" width="730" height="730" rx="365" fill="#7A5AF8"/>
</g>
</g>
<defs>
<filter id="filter0_b_99_17794" x="-144.004" y="201.993" width="916.006" height="373.007" filterUnits="userSpaceOnUse" color-interpolation-filters="sRGB">
<feFlood flood-opacity="0" result="BackgroundImageFix"/>
<feGaussianBlur in="BackgroundImageFix" stdDeviation="12"/>
<feComposite in2="SourceAlpha" operator="in" result="effect1_backgroundBlur_99_17794"/>
<feBlend mode="normal" in="SourceGraphic" in2="effect1_backgroundBlur_99_17794" result="shape"/>
</filter>
<filter id="filter1_f_99_17794" x="591" y="-486" width="1330" height="1330" filterUnits="userSpaceOnUse" color-interpolation-filters="sRGB">
<feFlood flood-opacity="0" result="BackgroundImageFix"/>
<feBlend mode="normal" in="SourceGraphic" in2="BackgroundImageFix" result="shape"/>
<feGaussianBlur stdDeviation="150" result="effect1_foregroundBlur_99_17794"/>
</filter>
<filter id="filter2_f_99_17794" x="-585" y="8" width="1330" height="1330" filterUnits="userSpaceOnUse" color-interpolation-filters="sRGB">
<feFlood flood-opacity="0" result="BackgroundImageFix"/>
<feBlend mode="normal" in="SourceGraphic" in2="BackgroundImageFix" result="shape"/>
<feGaussianBlur stdDeviation="150" result="effect1_foregroundBlur_99_17794"/>
</filter>
<radialGradient id="paint0_radial_99_17794" cx="0" cy="0" r="1" gradientUnits="userSpaceOnUse" gradientTransform="translate(720 -0.000171661) rotate(90) scale(1440 751.588)">
<stop/>
<stop offset="0.953125" stop-opacity="0"/>
</radialGradient>
<clipPath id="clip0_99_17794">
<rect width="1440" height="900" fill="white"/>
</clipPath>
<clipPath id="clip1_99_17794">
<rect width="1920" height="1440" fill="white" transform="translate(-257 -21)"/>
</clipPath>
<clipPath id="clip2_99_17794">
<rect width="1920" height="1440" fill="white" transform="translate(-257 -21)"/>
</clipPath>
<clipPath id="clip3_99_17794">
<rect width="1920" height="1440" fill="white" transform="translate(-257 -21)"/>
</clipPath>
<clipPath id="clip4_99_17794">
<rect width="18" height="24" fill="white" transform="translate(238 768)"/>
</clipPath>
<clipPath id="clip5_99_17794">
<rect width="18" height="24" fill="white" transform="translate(134 100)"/>
</clipPath>
<clipPath id="clip6_99_17794">
<rect width="18" height="24" fill="white" transform="translate(1312 112)"/>
</clipPath>
<clipPath id="clip7_99_17794">
<rect width="18" height="24" fill="white" transform="translate(1170 768)"/>
</clipPath>
<clipPath id="clip8_99_17794">
<rect width="18" height="24" fill="white" transform="translate(1015 194)"/>
</clipPath>
<clipPath id="clip9_99_17794">
<rect width="18" height="24" fill="white" transform="translate(375 274)"/>
</clipPath>
<clipPath id="clip10_99_17794">
<rect width="18" height="24" fill="white" transform="translate(943 634)"/>
</clipPath>
</defs>
</svg>
